# This file uses centimeters as units for non-parametric coordinates.

mtllib rock03_N.mtl
g default
v 16.196754 0.289871 -14.747938
v -9.391891 0.289871 -18.140131
v 16.196754 6.153312 -14.747938
v -7.830535 12.222044 -16.029634
v 18.873519 8.441500 5.500443
v -9.391891 18.380362 5.500443
v 18.873519 0.289871 5.500443
v -22.522765 0.289871 5.500443
v 10.393896 0.289871 -18.140131
v 10.393896 0.289871 5.500443
v 10.393896 17.687428 5.500443
v 11.955252 9.203772 -16.029634
v 18.873519 8.441500 -11.047959
v 10.393896 13.436817 -11.047959
v -9.391891 14.129753 -11.047959
v -22.522765 0.289871 -11.047959
v 10.393896 0.289871 -11.047959
v 18.873519 0.289871 -11.047959
v 2.479581 0.289871 -18.140131
v 2.479581 0.289871 -11.047959
v 2.479581 0.289871 5.500443
v 2.479581 22.027595 5.500443
v 2.479581 15.560210 -11.047959
v 4.040937 13.543941 -16.029634
v 22.522765 0.289871 -2.773758
v 10.393896 0.289871 -2.773758
v 2.479581 0.289871 -2.773758
v -22.522765 0.289871 -2.773758
v -9.391891 18.380362 -2.773758
v 2.479581 22.027595 -2.773758
v 10.393896 17.687428 -2.773758
v 22.522765 8.441500 -2.773758
v 2.479580 0.289871 15.154488
v 3.724153 18.366214 13.092906
v -7.525721 16.125487 12.206418
v -14.430151 0.289871 15.154488
v 16.507660 8.441500 12.206418
v 10.393896 15.651940 12.206418
v 10.393896 0.289871 15.154488
v 18.873519 0.289871 12.206418
v 16.196755 2.635246 -14.747938
v 10.393896 3.516510 -18.140131
v 2.479581 5.252578 -18.140131
v -9.391891 4.723820 -18.140131
v -15.931695 6.755957 -11.047959
v -15.931695 8.456201 -2.773758
v -15.931695 8.456200 5.500443
v -9.391891 8.456200 13.935400
v 2.479580 8.984959 18.140131
v 10.393896 7.248892 18.140131
v 18.873519 3.550522 12.206418
v 18.873519 3.550522 5.500443
v 22.522765 3.550522 -2.773758
v 18.873519 3.550522 -11.047959
vt 0.623997 0.420846
vt 0.731842 0.373114
vt 0.789143 0.538429
vt 0.689170 0.543744
vt 0.526471 0.644625
vt 0.463846 0.532860
vt 0.572915 0.468937
vt 0.635932 0.599332
vt 0.749144 0.214600
vt 0.794940 0.101477
vt 0.284721 0.802257
vt 0.175951 0.668449
vt 0.289559 0.604290
vt 0.839701 0.119597
vt 0.793904 0.232720
vt 0.337242 0.720181
vt 0.722794 0.693547
vt 0.598958 0.778205
vt 0.350989 0.282043
vt 0.322913 0.217147
vt 0.489574 0.198806
vt 0.488308 0.266158
vt 0.876413 0.028912
vt 0.165909 0.444276
vt 0.854197 0.083789
vt 0.251186 0.536512
vt 0.809437 0.065669
vt 0.127241 0.580442
vt 0.824969 0.027302
vt 0.756574 0.085945
vt 0.734830 0.139657
vt 0.105346 0.421545
vt 0.533399 0.376517
vt 0.426100 0.439367
vt 0.575468 0.203169
vt 0.771071 0.050137
vt 0.800050 0.031311
vt 0.914490 0.063544
vt 0.898958 0.101910
vt 0.671478 0.267556
vt 0.598201 0.313571
vt 0.561405 0.250531
vt 0.462067 0.834433
vt 0.429976 0.695890
vt 0.379854 0.574260
vt 0.329869 0.491525
vt 0.235271 0.362238
vt 0.183923 0.313019
vt 0.585662 0.170411
vt 0.699244 0.229339
vt 0.796851 0.334919
vt 0.854473 0.536027
vt 0.800331 0.790278
vt 0.669117 0.897518
vt 0.510282 0.968978
vt 0.263891 0.937550
vt 0.058360 0.722196
vt 0.031823 0.571632
vt 0.062209 0.402522
vt 0.951182 0.123052
vt 0.950766 0.078230
vt 0.905713 0.235368
vt 0.936686 0.158860
vt 0.838665 0.250841
vt 0.884461 0.137718
vt 0.150349 0.279840
vt 0.304283 0.172712
vt 0.490226 0.148456
vn 0.079853 0.627030 -0.774892
vn 0.018476 0.182148 -0.983098
vn -0.310737 0.277296 -0.909148
vn -0.281553 0.555621 -0.782313
vn -0.515934 0.824606 -0.232027
vn 0.026945 0.959401 -0.280754
vn 0.040716 0.864717 -0.500606
vn -0.483196 0.753219 -0.446300
vn -0.445926 0.294269 0.845314
vn -0.076961 0.177158 0.981169
vn -0.000463 0.726660 0.686997
vn -0.441935 0.593254 0.672862
vn -0.408353 -0.889945 -0.203091
vn 0.000000 -1.000000 0.000000
vn 0.000000 -1.000000 0.000000
vn -0.387540 -0.921697 -0.016951
vn -0.725721 0.547975 -0.415996
vn -0.791005 0.607263 -0.074452
vn 0.803159 0.592464 -0.062616
vn 1.000000 0.000000 0.000000
vn 0.886865 0.000000 -0.462028
vn 0.670045 0.607595 -0.426460
vn 0.374155 -0.927366 0.000000
vn 0.000000 -1.000000 0.000000
vn -0.000000 -1.000000 0.000000
vn 0.277564 -0.949826 -0.144182
vn 0.728247 0.497172 0.471673
vn 0.505424 0.667288 0.547059
vn 0.281581 0.116087 0.952489
vn 0.764584 0.052307 0.642398
vn 0.442578 0.793925 -0.416902
vn 0.534649 0.827914 -0.169438
vn 0.628901 0.041831 -0.776359
vn 0.189797 0.141203 -0.971617
vn 0.315247 0.497478 -0.808167
vn 0.586118 0.345314 -0.732956
vn 0.000000 -0.904379 -0.426730
vn -0.173215 -0.845458 -0.505171
vn 0.102487 -0.843821 -0.526748
vn 0.282720 -0.897826 -0.337606
vn 0.271108 -0.960280 0.066043
vn -0.000000 -1.000000 0.000000
vn 0.000000 -1.000000 -0.000000
vn -0.471415 -0.863661 0.178486
vn -0.783811 0.552349 0.283816
vn -0.576314 0.786581 0.221703
vn 0.016066 0.983460 0.180413
vn 0.593680 0.787885 0.163653
vn 0.796090 0.563338 0.221115
vn 0.958313 0.062254 0.278855
vn -0.055764 -0.860118 0.507038
vn -0.326555 -0.781729 0.531283
vn 0.357708 -0.857052 0.370818
vn 0.097104 -0.829286 0.550323
s 1
g Rock03
usemtl lambert5SG
f 24/1/1 43/2/2 44/3/3 4/4/4
f 29/5/5 30/6/6 23/7/7 15/8/8
f 48/11/9 49/12/10 34/13/11 35/16/12
f 16/9/13 20/10/14 27/14/15 28/15/16
f 15/8/8 45/17/17 46/18/18 29/5/5
f 32/19/19 53/20/20 54/21/21 13/22/22
f 25/23/23 26/25/24 17/27/25 18/29/26
f 37/24/27 38/26/28 50/28/29 51/32/30
f 13/22/22 14/33/31 31/34/32 32/19/19
f 41/35/33 42/40/34 12/41/35 3/42/36
f 3/42/36 12/41/35 14/33/31 13/22/22
f 15/8/8 23/7/7 24/1/1 4/4/4
f 44/3/3 45/17/17 15/8/8 4/4/4
f 19/30/37 20/10/14 16/9/13 2/31/38
f 18/29/26 17/27/25 9/36/39 1/37/40
f 13/22/22 54/21/21 41/35/33 3/42/36
f 9/36/39 17/27/25 20/10/14 19/30/37
f 26/25/24 27/14/15 20/10/14 17/27/25
f 49/12/10 50/28/29 38/26/28 34/13/11
f 30/6/6 31/34/32 14/33/31 23/7/7
f 24/1/1 23/7/7 14/33/31 12/41/35
f 12/41/35 42/40/34 43/2/2 24/1/1
f 7/38/41 10/39/42 26/25/24 25/23/23
f 21/65/43 27/14/15 26/25/24 10/39/42
f 28/15/16 27/14/15 21/65/43 8/64/44
f 29/5/5 46/18/18 47/43/45 6/44/46
f 22/45/47 30/6/6 29/5/5 6/44/46
f 11/46/48 31/34/32 30/6/6 22/45/47
f 32/19/19 31/34/32 11/46/48 5/47/49
f 52/48/50 53/20/20 32/19/19 5/47/49
f 22/45/47 6/44/46 35/16/12 34/13/11
f 6/44/46 47/43/45 48/11/9 35/16/12
f 8/64/44 21/65/43 33/63/51 36/62/52
f 5/47/49 11/46/48 38/26/28 37/24/27
f 10/39/42 7/38/41 40/61/53 39/60/54
f 51/32/30 52/48/50 5/47/49 37/24/27
f 11/46/48 22/45/47 34/13/11 38/26/28
f 21/65/43 10/39/42 39/60/54 33/63/51
f 1/49/40 9/50/39 42/40/34 41/35/33
f 43/2/2 42/40/34 9/50/39 19/51/37
f 44/3/3 43/2/2 19/51/37 2/52/38
f 2/52/38 16/53/13 45/17/17 44/3/3
f 46/18/18 45/17/17 16/53/13 28/54/16
f 47/43/45 46/18/18 28/54/16 8/55/44
f 48/11/9 47/43/45 8/55/44 36/56/52
f 33/57/51 49/12/10 48/11/9 36/56/52
f 39/58/54 50/28/29 49/12/10 33/57/51
f 51/32/30 50/28/29 39/58/54 40/59/53
f 7/66/41 52/48/50 51/32/30 40/59/53
f 7/66/41 25/67/23 53/20/20 52/48/50
f 54/21/21 53/20/20 25/67/23 18/68/26
f 41/35/33 54/21/21 18/68/26 1/49/40
