# This file uses centimeters as units for non-parametric coordinates.

mtllib rock01_N.mtl
g default
v -12.941248 0.131138 14.747938
v 7.504145 0.131138 18.140131
v -12.941248 5.994579 14.747938
v 6.256618 12.063311 16.029634
v -15.079990 8.282766 -5.500443
v 7.504145 18.221630 -5.500443
v -15.079990 0.131138 -5.500443
v 17.995747 0.131138 -5.500443
v -8.304749 0.131138 18.140131
v -8.304749 0.131138 -5.500443
v -8.304749 17.528694 -5.500443
v -9.552277 9.045039 16.029634
v -15.079990 8.282766 11.047959
v -8.304749 13.278084 11.047959
v 7.504145 13.971020 11.047959
v 17.995747 0.131138 11.047959
v -8.304749 0.131138 11.047959
v -15.079990 0.131138 11.047959
v -1.981192 0.131138 18.140131
v -1.981192 0.131138 11.047959
v -1.981192 0.131138 -5.500443
v -1.981192 21.868862 -5.500443
v -1.981192 15.401477 11.047959
v -3.228719 13.385208 16.029634
v -17.995747 0.131138 2.773758
v -8.304749 0.131138 2.773758
v -1.981192 0.131138 2.773758
v 17.995747 0.131138 2.773758
v 7.504145 18.221630 2.773758
v -1.981192 21.868862 2.773758
v -8.304749 17.528694 2.773758
v -17.995747 8.282766 2.773758
v -1.981191 0.131138 -15.154488
v -2.975607 18.207481 -13.092906
v 6.013070 15.966754 -12.206418
v 11.529728 0.131138 -15.154488
v -13.189663 8.282766 -12.206418
v -8.304749 15.493207 -12.206418
v -8.304749 0.131138 -15.154488
v -15.079990 0.131138 -12.206418
v -12.941249 2.476513 14.747938
v -8.304749 3.357778 18.140131
v -1.981192 5.093845 18.140131
v 7.504145 4.565087 18.140131
v 12.729465 6.597224 11.047959
v 12.729465 8.297468 2.773758
v 12.729465 8.297468 -5.500443
v 7.504145 8.297468 -13.935400
v -1.981191 8.826226 -18.140131
v -8.304749 7.090159 -18.140131
v -15.079990 3.391789 -12.206418
v -15.079990 3.391789 -5.500443
v -17.995747 3.391789 2.773758
v -15.079990 3.391789 11.047959
vt 0.623997 0.420846
vt 0.731842 0.373114
vt 0.789143 0.538429
vt 0.689170 0.543744
vt 0.526471 0.644625
vt 0.463846 0.532860
vt 0.572915 0.468937
vt 0.635932 0.599332
vt 0.749144 0.214600
vt 0.794940 0.101477
vt 0.284721 0.802257
vt 0.175951 0.668449
vt 0.289559 0.604290
vt 0.839701 0.119597
vt 0.793904 0.232720
vt 0.337242 0.720181
vt 0.722794 0.693547
vt 0.598958 0.778205
vt 0.350989 0.282043
vt 0.322913 0.217147
vt 0.489574 0.198806
vt 0.488308 0.266158
vt 0.876413 0.028912
vt 0.165909 0.444276
vt 0.854197 0.083789
vt 0.251186 0.536512
vt 0.809437 0.065669
vt 0.127241 0.580442
vt 0.824969 0.027302
vt 0.756574 0.085945
vt 0.734830 0.139657
vt 0.105346 0.421545
vt 0.533399 0.376517
vt 0.426100 0.439367
vt 0.575468 0.203169
vt 0.771071 0.050137
vt 0.800050 0.031311
vt 0.914490 0.063544
vt 0.898958 0.101910
vt 0.671478 0.267556
vt 0.598201 0.313571
vt 0.561405 0.250531
vt 0.462067 0.834433
vt 0.429976 0.695890
vt 0.379854 0.574260
vt 0.329869 0.491525
vt 0.235271 0.362238
vt 0.183923 0.313019
vt 0.585662 0.170411
vt 0.699244 0.229339
vt 0.796851 0.334919
vt 0.854473 0.536027
vt 0.800331 0.790278
vt 0.669117 0.897518
vt 0.510282 0.968978
vt 0.263891 0.937550
vt 0.058360 0.722196
vt 0.031823 0.571632
vt 0.062209 0.402522
vt 0.951182 0.123052
vt 0.950766 0.078230
vt 0.905713 0.235368
vt 0.936686 0.158860
vt 0.838665 0.250841
vt 0.884461 0.137718
vt 0.150349 0.279840
vt 0.304283 0.172712
vt 0.490226 0.148456
vn -0.099761 0.625900 0.773496
vn -0.023122 0.182130 0.983003
vn 0.378688 0.270011 0.885262
vn 0.344727 0.543552 0.765320
vn 0.601938 0.768692 0.216294
vn -0.033717 0.959204 0.280697
vn -0.050935 0.864311 0.500371
vn 0.568336 0.707866 0.419427
vn 0.529102 0.278977 -0.801388
vn 0.096160 0.176862 -0.979527
vn 0.000579 0.726660 -0.686997
vn 0.524840 0.562934 -0.638474
vn 0.488528 -0.850678 0.194131
vn 0.000000 -1.000000 0.000000
vn 0.000000 -1.000000 0.000000
vn 0.465629 -0.884830 0.016273
vn 0.797136 0.480919 0.365091
vn 0.850665 0.521800 0.063974
vn -0.860258 0.507034 0.053587
vn -1.000000 0.000000 0.000000
vn -0.923212 0.000000 0.384291
vn -0.748784 0.542518 0.380784
vn -0.450748 -0.892651 0.000000
vn 0.000000 -1.000000 0.000000
vn 0.000000 -1.000000 0.000000
vn -0.340048 -0.929757 0.141136
vn -0.799271 0.435984 -0.413622
vn -0.591240 0.623691 -0.511317
vn -0.344759 0.113565 -0.931796
vn -0.829411 0.045337 -0.556797
vn -0.525527 0.753240 0.395538
vn -0.620776 0.768068 0.157190
vn -0.711442 0.037810 0.701727
vn -0.235155 0.139784 0.961854
vn -0.383894 0.484042 0.786339
vn -0.671166 0.315941 0.670610
vn -0.000000 -0.904379 0.426730
vn 0.214971 -0.838364 0.500933
vn -0.127888 -0.841322 0.525188
vn -0.346094 -0.878167 0.330213
vn -0.332458 -0.940895 -0.064710
vn 0.000000 -1.000000 0.000000
vn 0.000000 -1.000000 -0.000000
vn 0.556046 -0.813952 -0.168213
vn 0.844932 0.475744 -0.244453
vn 0.661729 0.721626 -0.203396
vn -0.020106 0.983388 -0.180400
vn -0.678391 0.719347 -0.149417
vn -0.854693 0.483242 -0.189677
vn -0.972779 0.050492 -0.226169
vn 0.069730 -0.859362 -0.506592
vn 0.396893 -0.759139 -0.515930
vn -0.432302 -0.827587 -0.358070
vn -0.121208 -0.827080 -0.548860
s 1
g Rock_N
usemtl lambert5SG
f 24/1/1 43/2/2 44/3/3 4/4/4
f 29/5/5 30/6/6 23/7/7 15/8/8
f 48/11/9 49/12/10 34/13/11 35/16/12
f 16/9/13 20/10/14 27/14/15 28/15/16
f 15/8/8 45/17/17 46/18/18 29/5/5
f 32/19/19 53/20/20 54/21/21 13/22/22
f 25/23/23 26/25/24 17/27/25 18/29/26
f 37/24/27 38/26/28 50/28/29 51/32/30
f 13/22/22 14/33/31 31/34/32 32/19/19
f 41/35/33 42/40/34 12/41/35 3/42/36
f 3/42/36 12/41/35 14/33/31 13/22/22
f 15/8/8 23/7/7 24/1/1 4/4/4
f 44/3/3 45/17/17 15/8/8 4/4/4
f 19/30/37 20/10/14 16/9/13 2/31/38
f 18/29/26 17/27/25 9/36/39 1/37/40
f 13/22/22 54/21/21 41/35/33 3/42/36
f 9/36/39 17/27/25 20/10/14 19/30/37
f 26/25/24 27/14/15 20/10/14 17/27/25
f 49/12/10 50/28/29 38/26/28 34/13/11
f 30/6/6 31/34/32 14/33/31 23/7/7
f 24/1/1 23/7/7 14/33/31 12/41/35
f 12/41/35 42/40/34 43/2/2 24/1/1
f 7/38/41 10/39/42 26/25/24 25/23/23
f 21/65/43 27/14/15 26/25/24 10/39/42
f 28/15/16 27/14/15 21/65/43 8/64/44
f 29/5/5 46/18/18 47/43/45 6/44/46
f 22/45/47 30/6/6 29/5/5 6/44/46
f 11/46/48 31/34/32 30/6/6 22/45/47
f 32/19/19 31/34/32 11/46/48 5/47/49
f 52/48/50 53/20/20 32/19/19 5/47/49
f 22/45/47 6/44/46 35/16/12 34/13/11
f 6/44/46 47/43/45 48/11/9 35/16/12
f 8/64/44 21/65/43 33/63/51 36/62/52
f 5/47/49 11/46/48 38/26/28 37/24/27
f 10/39/42 7/38/41 40/61/53 39/60/54
f 51/32/30 52/48/50 5/47/49 37/24/27
f 11/46/48 22/45/47 34/13/11 38/26/28
f 21/65/43 10/39/42 39/60/54 33/63/51
f 1/49/40 9/50/39 42/40/34 41/35/33
f 43/2/2 42/40/34 9/50/39 19/51/37
f 44/3/3 43/2/2 19/51/37 2/52/38
f 2/52/38 16/53/13 45/17/17 44/3/3
f 46/18/18 45/17/17 16/53/13 28/54/16
f 47/43/45 46/18/18 28/54/16 8/55/44
f 48/11/9 47/43/45 8/55/44 36/56/52
f 33/57/51 49/12/10 48/11/9 36/56/52
f 39/58/54 50/28/29 49/12/10 33/57/51
f 51/32/30 50/28/29 39/58/54 40/59/53
f 7/66/41 52/48/50 51/32/30 40/59/53
f 7/66/41 25/67/23 53/20/20 52/48/50
f 54/21/21 53/20/20 25/67/23 18/68/26
f 41/35/33 54/21/21 18/68/26 1/49/40
