# This file uses centimeters as units for non-parametric coordinates.

mtllib rock02_N.mtl
g default
v -15.895163 0.128848 1.247943
v -6.296419 0.128848 14.789793
v -15.895163 16.571095 1.247943
v -5.775781 33.589020 12.857174
v -5.337070 22.987625 -11.730826
v 7.443564 50.858162 1.049811
v -5.337070 0.128848 -11.730826
v 13.380890 0.128848 6.987135
v -15.242864 0.128848 5.843348
v -1.502885 0.128848 -7.896635
v -1.502885 48.915035 -7.896635
v -14.722229 25.125187 3.910729
v -14.955063 22.987625 -2.112838
v -11.120870 36.995483 1.721353
v -2.174425 38.938610 10.667799
v 3.762901 0.128848 16.605124
v -11.120870 0.128848 1.721353
v -14.955063 0.128848 -2.112838
v -11.664286 0.128848 9.421926
v -7.542292 0.128848 5.299931
v 2.075697 0.128848 -4.318057
v 2.075697 61.085720 -4.318057
v -7.542292 42.949898 5.299932
v -11.143651 37.295879 7.489307
v -11.796131 0.128848 -8.571895
v -6.311875 0.128848 -3.087641
v -2.733297 0.128848 0.490937
v 8.571896 0.128848 11.796129
v 2.634570 50.858162 5.858805
v -2.733297 61.085720 0.490937
v -6.311875 48.915035 -3.087641
v -11.796131 22.987625 -8.571895
v 7.686663 0.128848 -9.929020
v 5.925706 50.818485 -9.293574
v 10.497281 44.535046 -3.691543
v 15.332653 0.128848 -2.283027
v -0.369778 22.987625 -14.558602
v 2.394652 43.207123 -11.794170
v 4.108085 0.128848 -13.507599
v -1.439541 0.128848 -15.628362
v -15.895164 6.705743 1.247942
v -15.242864 9.176984 5.843348
v -11.664286 14.045259 9.421926
v -6.296419 12.562517 14.789793
v 0.782646 18.261032 13.624871
v 5.591640 23.028851 8.815877
v 10.400635 23.028851 4.006883
v 12.345987 23.028851 -3.852615
v 9.421924 24.511593 -11.664286
v 5.843345 19.643320 -15.242865
v -1.439541 9.272359 -15.628362
v -5.337070 9.272359 -11.730826
v -11.796131 9.272359 -8.571895
v -14.955063 9.272359 -2.112838
vt 0.623997 0.420846
vt 0.731842 0.373114
vt 0.789143 0.538429
vt 0.689170 0.543744
vt 0.526471 0.644625
vt 0.463846 0.532860
vt 0.572915 0.468937
vt 0.635932 0.599332
vt 0.749144 0.214600
vt 0.794940 0.101477
vt 0.284721 0.802257
vt 0.175951 0.668449
vt 0.289559 0.604290
vt 0.839701 0.119597
vt 0.793904 0.232720
vt 0.337242 0.720181
vt 0.722794 0.693547
vt 0.598958 0.778205
vt 0.350989 0.282043
vt 0.322913 0.217147
vt 0.489574 0.198806
vt 0.488308 0.266158
vt 0.876413 0.028912
vt 0.165909 0.444276
vt 0.854197 0.083789
vt 0.251186 0.536512
vt 0.809437 0.065669
vt 0.127241 0.580442
vt 0.824969 0.027302
vt 0.756574 0.085945
vt 0.734830 0.139657
vt 0.105346 0.421545
vt 0.533399 0.376517
vt 0.426100 0.439367
vt 0.575468 0.203169
vt 0.771071 0.050137
vt 0.800050 0.031311
vt 0.914490 0.063544
vt 0.898958 0.101910
vt 0.671478 0.267556
vt 0.598201 0.313571
vt 0.561405 0.250531
vt 0.462067 0.834433
vt 0.429976 0.695890
vt 0.379854 0.574260
vt 0.329869 0.491525
vt 0.235271 0.362238
vt 0.183923 0.313019
vt 0.585662 0.170411
vt 0.699244 0.229339
vt 0.796851 0.334919
vt 0.854473 0.536027
vt 0.800331 0.790278
vt 0.669117 0.897518
vt 0.510282 0.968978
vt 0.263891 0.937550
vt 0.058360 0.722196
vt 0.031823 0.571632
vt 0.062209 0.402522
vt 0.951182 0.123052
vt 0.950766 0.078230
vt 0.905713 0.235368
vt 0.936686 0.158860
vt 0.838665 0.250841
vt 0.884461 0.137718
vt 0.150349 0.279840
vt 0.304283 0.172712
vt 0.490226 0.148456
vn -0.776251 0.298766 0.555133
vn -0.730258 0.059975 0.680534
vn -0.373098 0.077880 0.924518
vn -0.321784 0.165338 0.932265
vn 0.316115 0.363019 0.876521
vn -0.437708 0.838948 0.323384
vn -0.703719 0.436102 0.560887
vn 0.227744 0.281567 0.932123
vn 0.982282 0.087231 -0.165872
vn 0.760298 0.074587 -0.645278
vn 0.636624 0.389485 -0.665591
vn 0.982840 0.168639 -0.074743
vn 0.323059 -0.370916 0.870663
vn 0.000000 -1.000000 0.000000
vn 0.000000 -1.000000 0.000000
vn 0.600157 -0.476531 0.642441
vn 0.387540 0.161150 0.907658
vn 0.637050 0.170028 0.751837
vn -0.739110 0.172601 -0.651096
vn -0.707107 0.000000 -0.707107
vn -0.921702 0.000000 -0.387898
vn -0.937914 0.190353 -0.289972
vn -0.614583 -0.494544 -0.614584
vn 0.000000 -1.000000 0.000000
vn 0.000000 -1.000000 0.000000
vn -0.746180 -0.585614 -0.316658
vn -0.302072 0.135474 -0.943610
vn -0.050966 0.219453 -0.974291
vn 0.383907 0.025902 -0.923009
vn -0.169607 -0.007275 -0.985485
vn -0.928204 0.314344 -0.199059
vn -0.821143 0.335281 -0.461857
vn -0.999718 0.008749 -0.022096
vn -0.866906 0.031163 0.497497
vn -0.920124 0.149956 0.361782
vn -0.998492 0.054355 -0.007728
vn -0.600649 -0.527676 0.600649
vn -0.330438 -0.407651 0.851253
vn -0.780892 -0.413238 0.468446
vn -0.882684 -0.468844 -0.032482
vn -0.441504 -0.620638 -0.647984
vn 0.000000 -1.000000 0.000000
vn 0.000000 -1.000000 0.000000
vn 0.835737 -0.338933 0.432051
vn 0.859638 0.151768 0.487842
vn 0.841027 0.328600 0.429764
vn 0.229901 0.917320 -0.325067
vn -0.507108 0.298822 -0.808423
vn -0.533897 0.153733 -0.831457
vn -0.533475 0.014447 -0.845692
vn 0.716943 -0.441699 -0.539347
vn 0.937313 -0.302477 -0.173065
vn -0.097946 -0.392802 -0.914392
vn 0.495435 -0.402844 -0.769585
s 1
g Rock02
usemtl lambert5SG
f 24/1/1 43/2/2 44/3/3 4/4/4
f 29/5/5 30/6/6 23/7/7 15/8/8
f 48/11/9 49/12/10 34/13/11 35/16/12
f 16/9/13 20/10/14 27/14/15 28/15/16
f 15/8/8 45/17/17 46/18/18 29/5/5
f 32/19/19 53/20/20 54/21/21 13/22/22
f 25/23/23 26/25/24 17/27/25 18/29/26
f 37/24/27 38/26/28 50/28/29 51/32/30
f 13/22/22 14/33/31 31/34/32 32/19/19
f 41/35/33 42/40/34 12/41/35 3/42/36
f 3/42/36 12/41/35 14/33/31 13/22/22
f 15/8/8 23/7/7 24/1/1 4/4/4
f 44/3/3 45/17/17 15/8/8 4/4/4
f 19/30/37 20/10/14 16/9/13 2/31/38
f 18/29/26 17/27/25 9/36/39 1/37/40
f 13/22/22 54/21/21 41/35/33 3/42/36
f 9/36/39 17/27/25 20/10/14 19/30/37
f 26/25/24 27/14/15 20/10/14 17/27/25
f 49/12/10 50/28/29 38/26/28 34/13/11
f 30/6/6 31/34/32 14/33/31 23/7/7
f 24/1/1 23/7/7 14/33/31 12/41/35
f 12/41/35 42/40/34 43/2/2 24/1/1
f 7/38/41 10/39/42 26/25/24 25/23/23
f 21/65/43 27/14/15 26/25/24 10/39/42
f 28/15/16 27/14/15 21/65/43 8/64/44
f 29/5/5 46/18/18 47/43/45 6/44/46
f 22/45/47 30/6/6 29/5/5 6/44/46
f 11/46/48 31/34/32 30/6/6 22/45/47
f 32/19/19 31/34/32 11/46/48 5/47/49
f 52/48/50 53/20/20 32/19/19 5/47/49
f 22/45/47 6/44/46 35/16/12 34/13/11
f 6/44/46 47/43/45 48/11/9 35/16/12
f 8/64/44 21/65/43 33/63/51 36/62/52
f 5/47/49 11/46/48 38/26/28 37/24/27
f 10/39/42 7/38/41 40/61/53 39/60/54
f 51/32/30 52/48/50 5/47/49 37/24/27
f 11/46/48 22/45/47 34/13/11 38/26/28
f 21/65/43 10/39/42 39/60/54 33/63/51
f 1/49/40 9/50/39 42/40/34 41/35/33
f 43/2/2 42/40/34 9/50/39 19/51/37
f 44/3/3 43/2/2 19/51/37 2/52/38
f 2/52/38 16/53/13 45/17/17 44/3/3
f 46/18/18 45/17/17 16/53/13 28/54/16
f 47/43/45 46/18/18 28/54/16 8/55/44
f 48/11/9 47/43/45 8/55/44 36/56/52
f 33/57/51 49/12/10 48/11/9 36/56/52
f 39/58/54 50/28/29 49/12/10 33/57/51
f 51/32/30 50/28/29 39/58/54 40/59/53
f 7/66/41 52/48/50 51/32/30 40/59/53
f 7/66/41 25/67/23 53/20/20 52/48/50
f 54/21/21 53/20/20 25/67/23 18/68/26
f 41/35/33 54/21/21 18/68/26 1/49/40
